<mxfile host="app.diagrams.net" modified="2024-04-05T15:36:27.289Z" agent="Mozilla/5.0 (Windows NT 10.0; Win64; x64; rv:124.0) Gecko/20100101 Firefox/124.0" etag="ip9Zou8jsBA1_0pvOYKJ" version="24.0.7" type="github">
  <diagram name="Pagina-1" id="3-wD7Ra--ZW9C04c_IBh">
    <mxGraphModel dx="1499" dy="1218" grid="1" gridSize="12" guides="1" tooltips="1" connect="1" arrows="1" fold="1" page="0" pageScale="1" pageWidth="1100" pageHeight="850" math="0" shadow="0">
      <root>
        <mxCell id="0" />
        <mxCell id="1" parent="0" />
        <mxCell id="b0-L5RkDC1IQs4jRK8Mg-3" value="Utenza" style="rounded=1;arcSize=10;whiteSpace=wrap;html=1;align=center;" parent="1" vertex="1">
          <mxGeometry x="318" y="-276" width="192" height="52" as="geometry" />
        </mxCell>
        <mxCell id="b0-L5RkDC1IQs4jRK8Mg-4" value="" style="shape=singleArrow;direction=north;whiteSpace=wrap;html=1;fillColor=#000000;" parent="1" vertex="1">
          <mxGeometry x="390" y="-224" width="48" height="68" as="geometry" />
        </mxCell>
        <mxCell id="b0-L5RkDC1IQs4jRK8Mg-5" value="" style="shape=partialRectangle;whiteSpace=wrap;html=1;bottom=1;right=1;left=1;top=0;fillColor=none;routingCenterX=-0.5;rotation=-180;" parent="1" vertex="1">
          <mxGeometry x="312" y="-156" width="276" height="60" as="geometry" />
        </mxCell>
        <mxCell id="b0-L5RkDC1IQs4jRK8Mg-6" value="Studente" style="rounded=1;arcSize=10;whiteSpace=wrap;html=1;align=center;" parent="1" vertex="1">
          <mxGeometry x="268" y="-96" width="100" height="40" as="geometry" />
        </mxCell>
        <mxCell id="b0-L5RkDC1IQs4jRK8Mg-7" value="Docente" style="rounded=1;arcSize=10;whiteSpace=wrap;html=1;align=center;" parent="1" vertex="1">
          <mxGeometry x="540" y="-96" width="100" height="40" as="geometry" />
        </mxCell>
        <mxCell id="b0-L5RkDC1IQs4jRK8Mg-8" value="Corso" style="rounded=1;arcSize=10;whiteSpace=wrap;html=1;align=center;" parent="1" vertex="1">
          <mxGeometry x="344" y="346" width="100" height="40" as="geometry" />
        </mxCell>
        <mxCell id="b0-L5RkDC1IQs4jRK8Mg-9" value="" style="shape=singleArrow;direction=north;whiteSpace=wrap;html=1;fillColor=#000000;rotation=90;" parent="1" vertex="1">
          <mxGeometry x="306" y="344" width="24" height="48" as="geometry" />
        </mxCell>
        <mxCell id="b0-L5RkDC1IQs4jRK8Mg-10" value="" style="shape=partialRectangle;whiteSpace=wrap;html=1;bottom=1;right=1;left=1;top=0;fillColor=none;routingCenterX=-0.5;rotation=-90;" parent="1" vertex="1">
          <mxGeometry x="154" y="440" width="218" height="60" as="geometry" />
        </mxCell>
        <mxCell id="b0-L5RkDC1IQs4jRK8Mg-11" value="" style="endArrow=none;html=1;rounded=0;entryX=0.5;entryY=1;entryDx=0;entryDy=0;exitX=0.5;exitY=0;exitDx=0;exitDy=0;" parent="1" source="b0-L5RkDC1IQs4jRK8Mg-10" target="b0-L5RkDC1IQs4jRK8Mg-10" edge="1">
          <mxGeometry width="50" height="50" relative="1" as="geometry">
            <mxPoint x="264" y="390" as="sourcePoint" />
            <mxPoint x="314" y="340" as="targetPoint" />
          </mxGeometry>
        </mxCell>
        <mxCell id="b0-L5RkDC1IQs4jRK8Mg-13" value="Corsi non inziati" style="rounded=1;arcSize=10;whiteSpace=wrap;html=1;align=center;" parent="1" vertex="1">
          <mxGeometry x="144" y="336" width="100" height="40" as="geometry" />
        </mxCell>
        <mxCell id="b0-L5RkDC1IQs4jRK8Mg-14" value="Corsi inziati" style="rounded=1;arcSize=10;whiteSpace=wrap;html=1;align=center;" parent="1" vertex="1">
          <mxGeometry x="144" y="450" width="100" height="40" as="geometry" />
        </mxCell>
        <mxCell id="b0-L5RkDC1IQs4jRK8Mg-15" value="Corsi Terminati" style="rounded=1;arcSize=10;whiteSpace=wrap;html=1;align=center;" parent="1" vertex="1">
          <mxGeometry x="144" y="556" width="100" height="40" as="geometry" />
        </mxCell>
        <mxCell id="b0-L5RkDC1IQs4jRK8Mg-16" value="" style="endArrow=none;html=1;rounded=0;entryX=0;entryY=0.5;entryDx=0;entryDy=0;exitX=1;exitY=0.5;exitDx=0;exitDy=0;" parent="1" target="b0-L5RkDC1IQs4jRK8Mg-17" edge="1">
          <mxGeometry relative="1" as="geometry">
            <mxPoint x="444" y="377.9999999999998" as="sourcePoint" />
            <mxPoint x="604" y="382" as="targetPoint" />
          </mxGeometry>
        </mxCell>
        <mxCell id="b0-L5RkDC1IQs4jRK8Mg-17" value="Comporre" style="shape=rhombus;perimeter=rhombusPerimeter;whiteSpace=wrap;html=1;align=center;" parent="1" vertex="1">
          <mxGeometry x="608" y="348" width="120" height="60" as="geometry" />
        </mxCell>
        <mxCell id="b0-L5RkDC1IQs4jRK8Mg-18" value="" style="endArrow=none;html=1;rounded=0;exitX=1;exitY=0.5;exitDx=0;exitDy=0;entryX=0;entryY=0.5;entryDx=0;entryDy=0;" parent="1" source="b0-L5RkDC1IQs4jRK8Mg-17" target="b0-L5RkDC1IQs4jRK8Mg-19" edge="1">
          <mxGeometry relative="1" as="geometry">
            <mxPoint x="560" y="370" as="sourcePoint" />
            <mxPoint x="908" y="378" as="targetPoint" />
          </mxGeometry>
        </mxCell>
        <mxCell id="b0-L5RkDC1IQs4jRK8Mg-19" value="Lezione" style="rounded=1;arcSize=10;whiteSpace=wrap;html=1;align=center;" parent="1" vertex="1">
          <mxGeometry x="908" y="358" width="100" height="40" as="geometry" />
        </mxCell>
        <mxCell id="b0-L5RkDC1IQs4jRK8Mg-21" value="Argomenti" style="rounded=1;arcSize=10;whiteSpace=wrap;html=1;align=center;" parent="1" vertex="1">
          <mxGeometry x="908" y="574" width="100" height="40" as="geometry" />
        </mxCell>
        <mxCell id="b0-L5RkDC1IQs4jRK8Mg-22" value="File" style="rounded=1;arcSize=10;whiteSpace=wrap;html=1;align=center;" parent="1" vertex="1">
          <mxGeometry x="1124" y="458" width="100" height="40" as="geometry" />
        </mxCell>
        <mxCell id="b0-L5RkDC1IQs4jRK8Mg-23" value="" style="endArrow=none;html=1;rounded=0;entryX=0.5;entryY=1;entryDx=0;entryDy=0;exitX=0.5;exitY=0;exitDx=0;exitDy=0;" parent="1" source="b0-L5RkDC1IQs4jRK8Mg-24" target="b0-L5RkDC1IQs4jRK8Mg-19" edge="1">
          <mxGeometry relative="1" as="geometry">
            <mxPoint x="958" y="454" as="sourcePoint" />
            <mxPoint x="900" y="394" as="targetPoint" />
          </mxGeometry>
        </mxCell>
        <mxCell id="b0-L5RkDC1IQs4jRK8Mg-24" value="Possedere" style="shape=rhombus;perimeter=rhombusPerimeter;whiteSpace=wrap;html=1;align=center;" parent="1" vertex="1">
          <mxGeometry x="898" y="458" width="120" height="60" as="geometry" />
        </mxCell>
        <mxCell id="b0-L5RkDC1IQs4jRK8Mg-25" value="" style="endArrow=none;html=1;rounded=0;exitX=0.5;exitY=1;exitDx=0;exitDy=0;entryX=0.5;entryY=0;entryDx=0;entryDy=0;" parent="1" source="b0-L5RkDC1IQs4jRK8Mg-24" target="b0-L5RkDC1IQs4jRK8Mg-21" edge="1">
          <mxGeometry relative="1" as="geometry">
            <mxPoint x="1004" y="550" as="sourcePoint" />
            <mxPoint x="1164" y="550" as="targetPoint" />
          </mxGeometry>
        </mxCell>
        <mxCell id="b0-L5RkDC1IQs4jRK8Mg-26" value="" style="endArrow=none;html=1;rounded=0;entryX=1;entryY=0.5;entryDx=0;entryDy=0;exitX=0;exitY=0.5;exitDx=0;exitDy=0;" parent="1" source="b0-L5RkDC1IQs4jRK8Mg-27" target="b0-L5RkDC1IQs4jRK8Mg-21" edge="1">
          <mxGeometry relative="1" as="geometry">
            <mxPoint x="1052" y="598" as="sourcePoint" />
            <mxPoint x="970" y="586" as="targetPoint" />
          </mxGeometry>
        </mxCell>
        <mxCell id="b0-L5RkDC1IQs4jRK8Mg-27" value="&lt;div&gt;Formato&lt;/div&gt;" style="shape=rhombus;perimeter=rhombusPerimeter;whiteSpace=wrap;html=1;align=center;" parent="1" vertex="1">
          <mxGeometry x="1114" y="564" width="120" height="60" as="geometry" />
        </mxCell>
        <mxCell id="b0-L5RkDC1IQs4jRK8Mg-28" value="" style="endArrow=none;html=1;rounded=0;entryX=0.5;entryY=0;entryDx=0;entryDy=0;exitX=0.5;exitY=1;exitDx=0;exitDy=0;" parent="1" source="b0-L5RkDC1IQs4jRK8Mg-22" target="b0-L5RkDC1IQs4jRK8Mg-27" edge="1">
          <mxGeometry relative="1" as="geometry">
            <mxPoint x="1126" y="606" as="sourcePoint" />
            <mxPoint x="1020" y="606" as="targetPoint" />
          </mxGeometry>
        </mxCell>
        <mxCell id="b0-L5RkDC1IQs4jRK8Mg-29" value="Iscrizione" style="shape=rhombus;perimeter=rhombusPerimeter;whiteSpace=wrap;html=1;align=center;" parent="1" vertex="1">
          <mxGeometry x="334" y="120" width="120" height="60" as="geometry" />
        </mxCell>
        <mxCell id="b0-L5RkDC1IQs4jRK8Mg-30" value="Crea" style="shape=rhombus;perimeter=rhombusPerimeter;whiteSpace=wrap;html=1;align=center;" parent="1" vertex="1">
          <mxGeometry x="530" y="132" width="120" height="60" as="geometry" />
        </mxCell>
        <mxCell id="b0-L5RkDC1IQs4jRK8Mg-32" value="" style="endArrow=none;html=1;rounded=0;entryX=0.5;entryY=1;entryDx=0;entryDy=0;exitX=0.5;exitY=0;exitDx=0;exitDy=0;" parent="1" source="b0-L5RkDC1IQs4jRK8Mg-30" target="b0-L5RkDC1IQs4jRK8Mg-7" edge="1">
          <mxGeometry relative="1" as="geometry">
            <mxPoint x="456" y="48" as="sourcePoint" />
            <mxPoint x="616" y="48" as="targetPoint" />
          </mxGeometry>
        </mxCell>
        <mxCell id="b0-L5RkDC1IQs4jRK8Mg-33" value="" style="endArrow=none;html=1;rounded=0;entryX=0.5;entryY=1;entryDx=0;entryDy=0;exitX=1;exitY=0.35;exitDx=0;exitDy=0;exitPerimeter=0;" parent="1" source="b0-L5RkDC1IQs4jRK8Mg-8" target="b0-L5RkDC1IQs4jRK8Mg-30" edge="1">
          <mxGeometry relative="1" as="geometry">
            <mxPoint x="582" y="39" as="sourcePoint" />
            <mxPoint x="638" y="-44" as="targetPoint" />
            <Array as="points">
              <mxPoint x="590" y="360" />
            </Array>
          </mxGeometry>
        </mxCell>
        <mxCell id="b0-L5RkDC1IQs4jRK8Mg-34" value="" style="endArrow=none;html=1;rounded=0;exitX=1;exitY=0.5;exitDx=0;exitDy=0;entryX=0.5;entryY=0;entryDx=0;entryDy=0;" parent="1" source="b0-L5RkDC1IQs4jRK8Mg-6" target="b0-L5RkDC1IQs4jRK8Mg-29" edge="1">
          <mxGeometry relative="1" as="geometry">
            <mxPoint x="216" y="12" as="sourcePoint" />
            <mxPoint x="376" y="12" as="targetPoint" />
            <Array as="points">
              <mxPoint x="396" y="-76" />
            </Array>
          </mxGeometry>
        </mxCell>
        <mxCell id="b0-L5RkDC1IQs4jRK8Mg-35" value="" style="endArrow=none;html=1;rounded=0;exitX=0.5;exitY=0;exitDx=0;exitDy=0;entryX=0.5;entryY=1;entryDx=0;entryDy=0;" parent="1" source="b0-L5RkDC1IQs4jRK8Mg-8" target="b0-L5RkDC1IQs4jRK8Mg-29" edge="1">
          <mxGeometry relative="1" as="geometry">
            <mxPoint x="230" y="-44" as="sourcePoint" />
            <mxPoint x="220" y="170" as="targetPoint" />
          </mxGeometry>
        </mxCell>
        <mxCell id="b0-L5RkDC1IQs4jRK8Mg-36" value="" style="endArrow=none;html=1;rounded=0;exitX=1;exitY=0.5;exitDx=0;exitDy=0;" parent="1" source="b0-L5RkDC1IQs4jRK8Mg-7" target="b0-L5RkDC1IQs4jRK8Mg-37" edge="1">
          <mxGeometry relative="1" as="geometry">
            <mxPoint x="612" y="60" as="sourcePoint" />
            <mxPoint x="792" y="-76" as="targetPoint" />
          </mxGeometry>
        </mxCell>
        <mxCell id="b0-L5RkDC1IQs4jRK8Mg-37" value="Carica" style="shape=rhombus;perimeter=rhombusPerimeter;whiteSpace=wrap;html=1;align=center;" parent="1" vertex="1">
          <mxGeometry x="743.9999999999998" y="-106" width="120" height="60" as="geometry" />
        </mxCell>
        <mxCell id="b0-L5RkDC1IQs4jRK8Mg-39" value="" style="endArrow=none;html=1;rounded=0;exitX=1;exitY=0.5;exitDx=0;exitDy=0;entryX=0.5;entryY=0;entryDx=0;entryDy=0;" parent="1" source="b0-L5RkDC1IQs4jRK8Mg-37" target="b0-L5RkDC1IQs4jRK8Mg-22" edge="1">
          <mxGeometry relative="1" as="geometry">
            <mxPoint x="612" y="60" as="sourcePoint" />
            <mxPoint x="772" y="60" as="targetPoint" />
            <Array as="points">
              <mxPoint x="1176" y="-76" />
            </Array>
          </mxGeometry>
        </mxCell>
        <mxCell id="DrERIsDQeM2z2awhUm8h-2" value="Appartenere" style="shape=rhombus;perimeter=rhombusPerimeter;whiteSpace=wrap;html=1;align=center;" vertex="1" parent="1">
          <mxGeometry x="334" y="446" width="120" height="60" as="geometry" />
        </mxCell>
        <mxCell id="DrERIsDQeM2z2awhUm8h-3" value="Categoria" style="rounded=1;arcSize=10;whiteSpace=wrap;html=1;align=center;" vertex="1" parent="1">
          <mxGeometry x="344" y="572" width="100" height="40" as="geometry" />
        </mxCell>
        <mxCell id="DrERIsDQeM2z2awhUm8h-4" value="" style="endArrow=none;html=1;rounded=0;exitX=0.5;exitY=1;exitDx=0;exitDy=0;entryX=0.5;entryY=0;entryDx=0;entryDy=0;" edge="1" parent="1" source="b0-L5RkDC1IQs4jRK8Mg-8" target="DrERIsDQeM2z2awhUm8h-2">
          <mxGeometry relative="1" as="geometry">
            <mxPoint x="404" y="334" as="sourcePoint" />
            <mxPoint x="564" y="334" as="targetPoint" />
          </mxGeometry>
        </mxCell>
        <mxCell id="DrERIsDQeM2z2awhUm8h-5" value="" style="endArrow=none;html=1;rounded=0;exitX=0.5;exitY=0;exitDx=0;exitDy=0;entryX=0.5;entryY=1;entryDx=0;entryDy=0;" edge="1" parent="1" source="DrERIsDQeM2z2awhUm8h-3" target="DrERIsDQeM2z2awhUm8h-2">
          <mxGeometry relative="1" as="geometry">
            <mxPoint x="406" y="398" as="sourcePoint" />
            <mxPoint x="406" y="458" as="targetPoint" />
          </mxGeometry>
        </mxCell>
        <mxCell id="DrERIsDQeM2z2awhUm8h-6" value="" style="endArrow=none;html=1;rounded=0;entryX=0;entryY=0.5;entryDx=0;entryDy=0;exitX=1;exitY=0.5;exitDx=0;exitDy=0;" edge="1" parent="1" source="DrERIsDQeM2z2awhUm8h-7" target="b0-L5RkDC1IQs4jRK8Mg-6">
          <mxGeometry relative="1" as="geometry">
            <mxPoint x="96" y="-12" as="sourcePoint" />
            <mxPoint x="256" y="-12" as="targetPoint" />
          </mxGeometry>
        </mxCell>
        <mxCell id="DrERIsDQeM2z2awhUm8h-7" value="Effettua" style="shape=rhombus;perimeter=rhombusPerimeter;whiteSpace=wrap;html=1;align=center;" vertex="1" parent="1">
          <mxGeometry x="48" y="-106" width="120" height="60" as="geometry" />
        </mxCell>
        <mxCell id="DrERIsDQeM2z2awhUm8h-8" value="Carrello" style="rounded=1;arcSize=10;whiteSpace=wrap;html=1;align=center;" vertex="1" parent="1">
          <mxGeometry x="58" y="130" width="100" height="40" as="geometry" />
        </mxCell>
        <mxCell id="DrERIsDQeM2z2awhUm8h-9" value="&lt;div&gt;Contiene&lt;/div&gt;" style="shape=rhombus;perimeter=rhombusPerimeter;whiteSpace=wrap;html=1;align=center;" vertex="1" parent="1">
          <mxGeometry x="186" y="228" width="120" height="60" as="geometry" />
        </mxCell>
        <mxCell id="DrERIsDQeM2z2awhUm8h-10" value="" style="endArrow=none;html=1;rounded=0;exitX=0.5;exitY=1;exitDx=0;exitDy=0;entryX=0;entryY=0.5;entryDx=0;entryDy=0;" edge="1" parent="1" source="DrERIsDQeM2z2awhUm8h-8" target="DrERIsDQeM2z2awhUm8h-9">
          <mxGeometry relative="1" as="geometry">
            <mxPoint x="276" y="264" as="sourcePoint" />
            <mxPoint x="436" y="264" as="targetPoint" />
            <Array as="points">
              <mxPoint x="108" y="258" />
            </Array>
          </mxGeometry>
        </mxCell>
        <mxCell id="DrERIsDQeM2z2awhUm8h-11" value="" style="endArrow=none;html=1;rounded=0;exitX=0.25;exitY=0;exitDx=0;exitDy=0;entryX=1;entryY=0.5;entryDx=0;entryDy=0;" edge="1" parent="1">
          <mxGeometry relative="1" as="geometry">
            <mxPoint x="366" y="346" as="sourcePoint" />
            <mxPoint x="303" y="258" as="targetPoint" />
            <Array as="points">
              <mxPoint x="366" y="258" />
            </Array>
          </mxGeometry>
        </mxCell>
        <mxCell id="DrERIsDQeM2z2awhUm8h-12" value="Possiede" style="shape=rhombus;perimeter=rhombusPerimeter;whiteSpace=wrap;html=1;align=center;" vertex="1" parent="1">
          <mxGeometry x="168" y="12" width="120" height="60" as="geometry" />
        </mxCell>
        <mxCell id="DrERIsDQeM2z2awhUm8h-13" value="" style="endArrow=none;html=1;rounded=0;exitX=0.5;exitY=0;exitDx=0;exitDy=0;entryX=0;entryY=0.5;entryDx=0;entryDy=0;" edge="1" parent="1" source="DrERIsDQeM2z2awhUm8h-8" target="DrERIsDQeM2z2awhUm8h-12">
          <mxGeometry relative="1" as="geometry">
            <mxPoint x="192" y="132" as="sourcePoint" />
            <mxPoint x="352" y="132" as="targetPoint" />
            <Array as="points">
              <mxPoint x="108" y="42" />
            </Array>
          </mxGeometry>
        </mxCell>
        <mxCell id="DrERIsDQeM2z2awhUm8h-14" value="" style="endArrow=none;html=1;rounded=0;exitX=0.5;exitY=0;exitDx=0;exitDy=0;entryX=0.5;entryY=1;entryDx=0;entryDy=0;" edge="1" parent="1" source="DrERIsDQeM2z2awhUm8h-12" target="b0-L5RkDC1IQs4jRK8Mg-6">
          <mxGeometry relative="1" as="geometry">
            <mxPoint x="192" y="132" as="sourcePoint" />
            <mxPoint x="352" y="132" as="targetPoint" />
            <Array as="points">
              <mxPoint x="228" y="-56" />
            </Array>
          </mxGeometry>
        </mxCell>
      </root>
    </mxGraphModel>
  </diagram>
</mxfile>
